# xmcd
#
# Track frame offsets: 
#        150
#        20522
#        36071
#        57059
#        74465
#        95883
#        116373
#        136019
#
# Disc length: 2080 seconds
#
# Revision: 0
# Processed by: cddbd v1.5.2PL0 Copyright (c) Steve Scherf et al.
# Submitted via: ExactAudioCopyFreeDBPlugin 1.0
#
DISCID=66081e08
DTITLE=I'll Work for Whiskey - Ky Babyn
DYEAR=2010
DGENRE=Blues
TTITLE0=Three More Miles
TTITLE1=I'll Work for Whiskey
TTITLE2=The Whole Way Home
TTITLE3=Steel Man
TTITLE4=Stuck in the Ruts
TTITLE5=The Sinner
TTITLE6=The Fortunate Soldier
TTITLE7=Laugh Lines and Wrinkles
EXTD=
EXTT0=
EXTT1=
EXTT2=
EXTT3=
EXTT4=
EXTT5=
EXTT6=
EXTT7=
PLAYORDER=
